#!OML:ASF E:\VariousWalksJay\Project 1\Capture day 1\Session 1\Actor2.ASF
:FULLY-SPECIFIED
:DEGREES
727
root -3.11595 16.9359 27.2377 4.23787 -22.4386 1.14585
lowerback -11.4288 -7.38426 3.77893
upperback -1.09688 -10.4569 2.92135
thorax 5.06662 -5.10631 -0.643211
lowerneck -8.60803 4.71811 4.34875
upperneck 10.0028 5.3899 3.04344
head 4.4469 2.98047 0.576636
rclavicle 7.91598e-014 3.49861e-014
rhumerus -68.7802 25.6749 -91.9676
rradius 25.3251
rwrist 2.88401
rhand -3.95671 7.84008
rfingers 7.12502
rthumb 21.7955 -20.9527
lclavicle 7.91598e-014 3.49861e-014
lhumerus 29.4899 -54.8324 58.2739
lradius 110.732
lwrist 19.2266
lhand -8.90138 -24.178
lfingers 7.12502
lthumb 17.0414 5.09452
rfemur -32.4796 -0.361335 21.1447
rtibia 35.4718
rfoot -15.3782 -7.9952
rtoes -10.7723
lfemur 23.4779 12.6213 -22.8634
ltibia 15.3861
lfoot 12.2234 7.98796
ltoes -10.8834
728
root -3.18636 16.9537 27.3794 4.25733 -22.3343 1.16732
lowerback -11.6135 -7.18348 3.71945
upperback -1.15992 -10.1906 2.93348
thorax 5.12141 -4.9749 -0.582445
lowerneck -8.68066 4.69322 4.3757
upperneck 10.0112 5.35929 2.95763
head 4.46443 2.96253 0.546279
rclavicle -1.62879e-014 -2.22639e-014
rhumerus -68.543 25.5571 -91.8974
rradius 25.5687
rwrist 2.79071
rhand -4.18377 7.92928
rfingers 7.12502
rthumb 21.5775 -20.8886
lclavicle -1.62879e-014 -2.22639e-014
lhumerus 29.0949 -55.1016 58.727
lradius 110.581
lwrist 19.2906
lhand -8.98796 -24.1054
lfingers 7.12502
lthumb 16.958 5.17435
rfemur -32.0654 -0.445461 21.165
rtibia 35.7625
rfoot -15.4354 -8.02436
rtoes -10.1471
lfemur 23.1786 12.8883 -22.4741
ltibia 16.4483
lfoot 13.4011 7.8864
ltoes -10.0093
729
root -3.2576 16.9657 27.5194 4.24635 -22.2378 1.16008
lowerback -11.75 -6.97889 3.65763
upperback -1.21161 -9.91687 2.94522
thorax 5.16141 -4.84045 -0.512637
lowerneck -8.72599 4.67196 4.42701
upperneck 10.0167 5.33164 2.87318
head 4.47724 2.94671 0.511899
rclavicle 5.54858e-014 2.38542e-014
rhumerus -68.2473 25.4369 -91.7989
rradius 25.8154
rwrist 2.68767
rhand -4.43765 8.03276
rfingers 7.12502
rthumb 21.3336 -20.8129
lclavicle 5.54858e-014 2.38542e-014
lhumerus 28.5207 -55.4148 59.3017
lradius 110.336
lwrist 19.2595
lhand -9.07367 -24.0654
lfingers 7.12502
lthumb 16.8755 5.22139
rfemur -31.6516 -0.490503 21.2195
rtibia 36.1207
rfoot -15.541 -8.03817
rtoes -9.33374
lfemur 22.881 13.1294 -22.0309
ltibia 17.6039
lfoot 14.4771 7.69057
ltoes -9.07334
730
root -3.3294 16.972 27.6569 4.21118 -22.1417 1.10537
lowerback -11.8364 -6.76957 3.61499
upperback -1.24934 -9.63739 2.95906
thorax 5.18515 -4.70336 -0.443204
lowerneck -8.75309 4.65127 4.49197
upperneck 10.0326 5.30251 2.79735
head 4.49036 2.93118 0.477577
rclavicle -1.86361e-015 3.18055e-015
rhumerus -67.8747 25.3116 -91.6742
rradius 26.0497
rwrist 2.58492
rhand -4.71744 8.14952
rfingers 7.12502
rthumb 21.0649 -20.7263
lclavicle -1.86361e-015 3.18055e-015
lhumerus 27.7629 -55.7812 60.0013
lradius 109.984
lwrist 19.1611
lhand -9.11327 -24.0653
lfingers 7.12502
lthumb 16.8374 5.22473
rfemur -31.2368 -0.503272 21.3274
rtibia 36.5426
rfoot -15.6899 -8.04722
rtoes -8.34358
lfemur 22.5713 13.3421 -21.5144
ltibia 18.8795
lfoot 15.4274 7.40452
ltoes -8.11814
731
root -3.40139 16.9723 27.7916 4.15344 -22.0322 0.982017
lowerback -11.8635 -6.56331 3.61097
upperback -1.26953 -9.3652 2.98182
thorax 5.18936 -4.56975 -0.379154
lowerneck -8.7639 4.63083 4.56587
upperneck 10.055 5.27134 2.73664
head 4.50262 2.91582 0.445999
rclavicle 5.55852e-014 3.33958e-014
rhumerus -67.3958 25.1928 -91.5252
rradius 26.2437
rwrist 2.5021
rhand -5.01558 8.27383
rfingers 7.12502
rthumb 20.7784 -20.6337
lclavicle 5.55852e-014 3.33958e-014
lhumerus 26.8019 -56.1955 60.832
lradius 109.521
lwrist 19.0349
lhand -9.17519 -24.0687
lfingers 7.12502
lthumb 16.7778 5.22643
rfemur -30.8092 -0.493781 21.5089
rtibia 37.0215
rfoot -15.8732 -8.06512
rtoes -7.21235
lfemur 22.2419 13.5242 -20.8981
ltibia 20.3033
lfoot 16.2032 7.01468
ltoes -7.17713
732
root -3.47303 16.9667 27.9232 4.07052 -21.8959 0.793593
lowerback -11.8271 -6.36575 3.64665
upperback -1.27232 -9.10764 3.01365
thorax 5.17156 -4.44324 -0.322259
lowerneck -8.76437 4.60924 4.63924
upperneck 10.0879 5.23693 2.69275
head 4.51594 2.89993 0.419315
rclavicle 1.98785e-015 7.95139e-015
rhumerus -66.7943 25.0848 -91.3542
rradius 26.378
rwrist 2.44319
rhand -5.3282 8.39291
rfingers 7.12502
rthumb 20.478 -20.5472
lclavicle 1.98785e-015 7.95139e-015
lhumerus 25.6181 -56.6551 61.8143
lradius 108.939
lwrist 18.8951
lhand -9.20261 -24.1058
lfingers 7.12502
lthumb 16.7514 5.19156
rfemur -30.3661 -0.486814 21.7607
rtibia 37.5535
rfoot -16.0851 -8.10178
rtoes -6.01727
lfemur 21.8839 13.6761 -20.1832
ltibia 21.8896
lfoot 16.7662 6.53654
ltoes -6.4375
733
root -3.54407 16.955 28.0514 3.96635 -21.7297 0.546305
lowerback -11.7365 -6.17892 3.72031
upperback -1.25436 -8.86757 3.05195
thorax 5.14064 -4.3249 -0.276799
lowerneck -8.75588 4.58682 4.7004
upperneck 10.1204 5.19971 2.68132
head 4.52639 2.884 0.404035
rclavicle -1.17283e-014 -4.13472e-014
rhumerus -66.0498 24.9754 -91.1498
rradius 26.446
rwrist 2.43886
rhand -5.65317 8.49906
rfingers 7.12502
rthumb 20.1657 -20.4743
lclavicle -1.17283e-014 -4.13472e-014
lhumerus 24.2016 -57.1478 62.9535
lradius 108.24
lwrist 18.7752
lhand -9.24321 -24.1311
lfingers 7.12502
lthumb 16.7123 5.16956
rfemur -29.9145 -0.487712 22.0761
rtibia 38.1342
rfoot -16.3126 -8.1572
rtoes -4.76567
lfemur 21.4839 13.7985 -19.3802
ltibia 23.6443
lfoot 16.9828 5.9689
ltoes -6.03906
